<?xml version="1.0" standalone="no"?><!DOCTYPE svg PUBLIC "-//W3C//DTD SVG 1.1//EN" "http://www.w3.org/Graphics/SVG/1.1/DTD/svg11.dtd"><svg t="1567673493468" class="icon" viewBox="0 0 1024 1024" version="1.1" xmlns="http://www.w3.org/2000/svg" p-id="1029" xmlns:xlink="http://www.w3.org/1999/xlink" width="200" height="200"><defs><style type="text/css"></style></defs><path d="M990.71072 106.976l-9.856-9.536c-18.816-22.176-47.744-33.408-86.016-33.408-43.424 0-92.608 14.176-132.096 25.568a1426.56 1426.56 0 0 1-23.04 6.528 1262.976 1262.976 0 0 0-251.232 97.504c-94.848 48.832-208.192 121.216-242.816 248.96-16.896 63.168 8.96 203.936 25.92 282.4 2.368 10.816 6.4 20.992 11.68 30.336-65.856 101.184-146.944 147.392-248.768 139.84a31.808 31.808 0 0 0-34.304 29.504 32 32 0 0 0 29.504 34.272c8.96 0.672 17.728 1.024 26.464 1.024 110.496 0 202.624-54.624 274.944-161.28 7.424 3.36 15.104 6.112 23.072 7.68 55.168 11.52 158.56 30.816 231.232 30.816 22.496 0 40.32-1.856 54.464-5.6 129.568-33.856 203.008-145.536 252.48-238.976a1243.36 1243.36 0 0 0 99.2-247.456c2.016-7.232 4.32-15.136 6.784-23.488 21.088-71.52 49.92-169.44-7.616-214.688z m-652.8 614.72a44.992 44.992 0 0 1-3.84-10.368c-25.504-118.176-35.968-217.184-26.656-252.064 27.936-102.912 121.984-163.264 210.336-208.704a1197.696 1197.696 0 0 1 238.56-92.608c7.424-2.016 15.552-4.384 24.192-6.848C816.08672 140.8 860.47072 128 894.80672 128c18.688 0 31.168 3.712 37.312 11.008-41.216 58.56-96.096 115.68-143.424 161.984a176.672 176.672 0 0 1-42.56-92.608 16 16 0 0 0-31.68 4.288 208.224 208.224 0 0 0 51.296 110.464l-126.176 120.48c-45.152-42.528-74.112-100.896-81.504-166.4a16 16 0 0 0-31.84 3.584c8.224 72.448 40.16 137.28 90.08 184.864a12220.608 12220.608 0 0 1-124.352 117.056c-52.32-47.136-84.64-109.28-91.008-176.896a15.936 15.936 0 0 0-17.44-14.4 16 16 0 0 0-14.4 17.408c7.04 74.752 42.304 143.488 99.328 195.712-46.4 42.816-89.6 81.536-130.56 117.12z m599.04-418.144a1253.76 1253.76 0 0 0-7.04 24.48 1177.824 1177.824 0 0 1-94.08 234.592c-46.08 87.04-107.296 179.648-212.256 207.072-5.952 1.6-17.44 3.488-38.176 3.488-69.44 0-175.68-20.608-218.56-29.536-1.344-0.288-2.528-0.96-3.84-1.376a5963.392 5963.392 0 0 0 130.336-117.056c31.744 24.064 67.52 42.848 107.04 55.328 27.072 8.576 55.456 14.912 84.288 18.816a16 16 0 0 0 4.32-31.712c-27.04-3.648-53.568-9.6-78.944-17.632a320.64 320.64 0 0 1-92.96-46.944 12602.368 12602.368 0 0 0 124.064-116.8 302.688 302.688 0 0 0 150.24 59.84c5.44 0.672 11.232 1.344 17.024 1.696l0.96 0.032a16 16 0 0 0 0.96-31.968 242.656 242.656 0 0 1-15.168-1.536 271.68 271.68 0 0 1-130.432-50.432l123.744-118.144c19.84 16.512 42.4 29.312 67.68 37.76a16 16 0 0 0 10.112-30.4 176.32 176.32 0 0 1-54.72-29.664c46.688-45.696 100.8-101.856 142.88-160.384 15.328 28.256-5.536 99.968-17.472 140.48z" fill="#5465CF" p-id="1030"></path></svg>