<?xml version="1.0" standalone="no"?><!DOCTYPE svg PUBLIC "-//W3C//DTD SVG 1.1//EN" "http://www.w3.org/Graphics/SVG/1.1/DTD/svg11.dtd"><svg t="1567674213209" class="icon" viewBox="0 0 1025 1024" version="1.1" xmlns="http://www.w3.org/2000/svg" p-id="3945" xmlns:xlink="http://www.w3.org/1999/xlink" width="200.1953125" height="200"><defs><style type="text/css"></style></defs><path d="M640 128q78.00832 0 149.17632 30.49472t122.49088 81.83808 81.83808 122.49088 30.49472 149.17632-30.49472 149.17632-81.83808 122.49088-122.49088 81.83808-149.17632 30.49472l-384 0q-69.67296 0-128.49152-34.32448t-93.16352-93.16352-34.32448-128.49152 34.32448-128.49152 93.16352-93.16352 128.49152-34.32448l21.99552 0q26.33728-74.3424 79.33952-132.15744t126.83264-90.8288 155.83232-32.99328zM640 213.34016q-55.33696 0-106.496 19.82464t-90.0096 53.84192-65.00352 81.32608-33.83296 101.00736l-88.65792 0q-70.67648 0-120.66816 49.99168t-49.99168 120.66816 49.99168 120.66816 120.66816 49.99168l384 0q60.66176 0 115.99872-23.67488t95.3344-63.67232 63.67232-95.3344 23.67488-115.99872-23.67488-115.99872-63.67232-95.3344-95.3344-63.67232-115.99872-23.67488z" p-id="3946"></path></svg>