<?xml version="1.0" standalone="no"?><!DOCTYPE svg PUBLIC "-//W3C//DTD SVG 1.1//EN" "http://www.w3.org/Graphics/SVG/1.1/DTD/svg11.dtd"><svg t="1567674299095" class="icon" viewBox="0 0 1024 1024" version="1.1" xmlns="http://www.w3.org/2000/svg" p-id="4104" xmlns:xlink="http://www.w3.org/1999/xlink" width="200" height="200"><defs><style type="text/css"></style></defs><path d="M507.252829 804.165818a31.650909 31.650909 0 0 1 31.232 27.089455l0.372364 4.701091v156.253091a31.650909 31.650909 0 0 1-31.604364 31.790545 31.650909 31.650909 0 0 1-31.185454-27.089455l-0.372364-4.70109V835.956364a31.650909 31.650909 0 0 1 31.557818-31.790546z m-240.733091-88.436363a31.976727 31.976727 0 0 1 2.978909 41.05309l-3.397818 3.909819-111.336727 110.126545a31.418182 31.418182 0 0 1-44.683637-0.418909 31.976727 31.976727 0 0 1-2.932363-41.053091l3.351273-3.909818 111.383272-110.126546a31.418182 31.418182 0 0 1 44.683637 0.465455zM755.433193 233.425455c148.340364 0 268.567273 119.621818 268.567272 267.170909 0 147.502545-120.226909 267.124364-268.567272 267.124363a268.660364 268.660364 0 0 1-119.761455-27.973818 264.424727 264.424727 0 0 1-119.808 28.485818c-146.385455 0-265.216-118.225455-265.216-264.238545 0-146.013091 118.830545-264.238545 265.216-264.238546 40.448 0 78.754909 9.029818 113.058909 25.134546a267.915636 267.915636 0 0 1 126.510546-31.464727z m-239.569455 69.957818c-111.709091 0-202.053818 89.925818-202.053818 200.610909 0 110.685091 90.391273 200.610909 202.053818 200.610909 19.828364 0 38.958545-2.792727 57.064727-8.098909a265.634909 265.634909 0 0 1-86.10909-195.956364c0-74.612364 30.813091-142.103273 80.430545-190.603636a201.774545 201.774545 0 0 0-51.386182-6.562909z m-327.214545 171.706182a31.650909 31.650909 0 0 1 31.557818 31.790545 31.744 31.744 0 0 1-26.903273 31.464727l-4.654545 0.325818H31.558284A31.650909 31.650909 0 0 1 0.000465 506.88c0-15.965091 11.682909-29.184 26.903273-31.464727l4.654546-0.325818h157.090909z m-61.765818-338.85091a31.418182 31.418182 0 0 1 44.683636-0.279272L282.903738 246.690909c12.427636 12.334545 12.567273 32.442182 0.279273 44.962909a31.418182 31.418182 0 0 1-44.637091 0.279273l-111.336727-110.778182a31.976727 31.976727 0 0 1-0.325818-44.962909zM507.252829 0a31.650909 31.650909 0 0 1 31.232 27.089455l0.372364 4.70109V188.043636a31.650909 31.650909 0 0 1-31.604364 31.790546 31.650909 31.650909 0 0 1-31.185454-27.089455l-0.372364-4.701091V31.790545A31.650909 31.650909 0 0 1 507.252829 0z" fill="#B5D4FF" p-id="4105"></path></svg>