<?xml version="1.0" standalone="no"?><!DOCTYPE svg PUBLIC "-//W3C//DTD SVG 1.1//EN" "http://www.w3.org/Graphics/SVG/1.1/DTD/svg11.dtd"><svg t="1567673943381" class="icon" viewBox="0 0 1024 1024" version="1.1" xmlns="http://www.w3.org/2000/svg" p-id="3164" xmlns:xlink="http://www.w3.org/1999/xlink" width="200" height="200"><defs><style type="text/css"></style></defs><path d="M512 256q69.674667 0 128.512 34.346667t93.184 93.184 34.346667 128.512-34.346667 128.512-93.184 93.184-128.512 34.346667-128.512-34.346667-93.184-93.184-34.346667-128.512 34.346667-128.512 93.184-93.184 128.512-34.346667zM240.682667 740.650667q17.664 0 30.165333 12.672t12.501333 30.336q0 17.322667-12.672 29.994667l-60.330667 60.330667q-12.672 12.672-29.994667 12.672-17.664 0-30.165333-12.501333t-12.501333-30.165333q0-18.005333 12.330667-30.336l60.330667-60.330667q12.672-12.672 30.336-12.672zM512 853.333333q17.664 0 30.165333 12.501333t12.501333 30.165333l0 85.333333q0 17.664-12.501333 30.165333t-30.165333 12.501333-30.165333-12.501333-12.501333-30.165333l0-85.333333q0-17.664 12.501333-30.165333t30.165333-12.501333zM42.666667 469.333333l85.333333 0q17.664 0 30.165333 12.501333t12.501333 30.165333-12.501333 30.165333-30.165333 12.501333l-85.333333 0q-17.664 0-30.165333-12.501333t-12.501333-30.165333 12.501333-30.165333 30.165333-12.501333zM512 341.333333q-70.656 0-120.661333 50.005333t-50.005333 120.661333 50.005333 120.661333 120.661333 50.005333 120.661333-50.005333 50.005333-120.661333-50.005333-120.661333-120.661333-50.005333zM783.658667 740.650667q17.322667 0 29.994667 12.672l60.330667 60.330667q12.672 12.672 12.672 30.336 0 17.322667-12.672 29.994667t-29.994667 12.672q-17.664 0-30.336-12.672l-60.330667-60.330667q-12.330667-12.330667-12.330667-29.994667t12.501333-30.336 30.165333-12.672zM180.352 137.344q17.322667 0 29.994667 12.672l60.330667 60.330667q12.672 12.672 12.672 29.994667 0 17.664-12.501333 30.165333t-30.165333 12.501333q-18.005333 0-30.336-12.330667l-60.330667-60.330667q-12.330667-12.330667-12.330667-30.336 0-17.664 12.501333-30.165333t30.165333-12.501333zM512 0q17.664 0 30.165333 12.501333t12.501333 30.165333l0 85.333333q0 17.664-12.501333 30.165333t-30.165333 12.501333-30.165333-12.501333-12.501333-30.165333l0-85.333333q0-17.664 12.501333-30.165333t30.165333-12.501333zM896 469.333333l85.333333 0q17.664 0 30.165333 12.501333t12.501333 30.165333-12.501333 30.165333-30.165333 12.501333l-85.333333 0q-17.664 0-30.165333-12.501333t-12.501333-30.165333 12.501333-30.165333 30.165333-12.501333zM843.989333 137.344q17.322667 0 29.994667 12.672t12.672 29.994667q0 17.664-12.672 30.336l-60.330667 60.330667q-12.330667 12.330667-29.994667 12.330667-18.346667 0-30.506667-12.16t-12.16-30.506667q0-17.664 12.330667-29.994667l60.330667-60.330667q12.672-12.672 30.336-12.672z" p-id="3165"></path></svg>