<?xml version="1.0" standalone="no"?><!DOCTYPE svg PUBLIC "-//W3C//DTD SVG 1.1//EN" "http://www.w3.org/Graphics/SVG/1.1/DTD/svg11.dtd"><svg t="1567674547514" class="icon" viewBox="0 0 1024 1024" version="1.1" xmlns="http://www.w3.org/2000/svg" p-id="5192" xmlns:xlink="http://www.w3.org/1999/xlink" width="200" height="200"><defs><style type="text/css"></style></defs><path d="M554.666667 646.4 554.666667 384c0-23.466667-19.2-42.666667-42.666667-42.666667s-42.666667 19.2-42.666667 42.666667l0 262.4c-49.066667 17.066667-85.333333 64-85.333333 121.6 0 70.4 57.6 128 128 128s128-57.6 128-128C640 712.533333 603.733333 665.6 554.666667 646.4zM640 597.333333 640 170.666667c0-70.4-57.6-128-128-128s-128 57.6-128 128l0 426.666667c-51.2 38.4-85.333333 100.266667-85.333333 170.666667 0 117.333333 96 213.333333 213.333333 213.333333 117.333333 0 213.333333-96 213.333333-213.333333C725.333333 697.6 691.2 635.733333 640 597.333333zM512 938.666667c-93.866667 0-170.666667-76.8-170.666667-170.666667 0-64 34.133333-117.333333 85.333333-147.2L426.666667 170.666667c0-46.933333 38.4-85.333333 85.333333-85.333333s85.333333 38.4 85.333333 85.333333l0 450.133333c51.2 29.866667 85.333333 85.333333 85.333333 147.2C682.666667 861.866667 605.866667 938.666667 512 938.666667z" p-id="5193"></path></svg>